<svg width="32" height="32" viewBox="0 0 32 32" fill="none" xmlns="http://www.w3.org/2000/svg">
<path opacity="0.2" d="M5.6786 22.1245C4.18768 19.6112 3.66554 16.64 4.21024 13.7689C4.75494 10.8979 6.329 8.32442 8.63685 6.53179C10.9447 4.73916 13.8276 3.85069 16.7442 4.0332C19.6607 4.21571 22.4103 5.45665 24.4767 7.52301C26.5431 9.58936 27.784 12.339 27.9666 15.2555C28.1491 18.1721 27.2606 21.055 25.468 23.3629C23.6754 25.6707 21.1019 27.2448 18.2309 27.7895C15.3598 28.3342 12.3887 27.8121 9.87532 26.3212L9.87534 26.3211L5.73077 27.5052C5.5593 27.5542 5.37784 27.5565 5.20521 27.5117C5.03257 27.467 4.87504 27.3769 4.74894 27.2508C4.62283 27.1247 4.53275 26.9672 4.48802 26.7945C4.44328 26.6219 4.44553 26.4404 4.49452 26.269L5.67869 22.1244L5.6786 22.1245Z" fill="white"/>
<path d="M5.6786 22.1245C4.18768 19.6112 3.66554 16.64 4.21024 13.7689C4.75494 10.8979 6.329 8.32442 8.63685 6.53179C10.9447 4.73916 13.8276 3.85069 16.7442 4.0332C19.6607 4.21571 22.4103 5.45665 24.4767 7.52301C26.5431 9.58936 27.784 12.339 27.9666 15.2555C28.1491 18.1721 27.2606 21.055 25.468 23.3629C23.6754 25.6707 21.1019 27.2448 18.2309 27.7895C15.3598 28.3342 12.3887 27.8121 9.87532 26.3212L9.87534 26.3211L5.73077 27.5052C5.5593 27.5542 5.37784 27.5565 5.20521 27.5117C5.03257 27.467 4.87504 27.3769 4.74894 27.2508C4.62283 27.1247 4.53275 26.9672 4.48802 26.7945C4.44328 26.6219 4.44553 26.4404 4.49452 26.269L5.67869 22.1244L5.6786 22.1245Z" stroke="white" stroke-width="2" stroke-linecap="round" stroke-linejoin="round"/>
<path d="M12 14H20" stroke="white" stroke-width="2" stroke-linecap="round" stroke-linejoin="round"/>
<path d="M12 18H20" stroke="white" stroke-width="2" stroke-linecap="round" stroke-linejoin="round"/>
</svg>
