<svg width="46" height="46" viewBox="0 0 46 46" fill="none" xmlns="http://www.w3.org/2000/svg">
<rect width="32" height="32" rx="10" fill="#F3E7E7"/>
<path opacity="0.2" d="M14.3 34.0117L17.7958 14.1859C17.849 13.8839 18.0201 13.6155 18.2713 13.4396C18.5225 13.2637 18.8332 13.1948 19.1352 13.248L27.106 14.6535C27.408 14.7068 27.6765 14.8778 27.8524 15.129C28.0283 15.3802 28.0972 15.691 28.0439 15.993L24.5303 35.9199C24.2937 37.2616 23.5403 38.457 22.432 39.2493C21.3237 40.0416 19.9488 40.3675 18.6028 40.1572C15.7204 39.7056 13.7933 36.8849 14.3 34.0117Z" fill="#861313"/>
<path d="M14.3 34.0117L17.7958 14.1859C17.849 13.8839 18.0201 13.6155 18.2713 13.4396C18.5225 13.2637 18.8332 13.1948 19.1352 13.248L27.106 14.6535C27.408 14.7068 27.6765 14.8778 27.8524 15.129C28.0283 15.3802 28.0972 15.691 28.0439 15.993L24.5303 35.9199C24.2937 37.2616 23.5403 38.457 22.432 39.2493C21.3237 40.0416 19.9488 40.3675 18.6028 40.1572C15.7204 39.7056 13.7933 36.8849 14.3 34.0117Z" stroke="#861313" stroke-width="2" stroke-linecap="round" stroke-linejoin="round"/>
<path d="M26.0953 27.0447L36.6407 23.2064C36.9289 23.1016 37.2469 23.1155 37.5249 23.2451C37.8028 23.3746 38.0178 23.6093 38.1227 23.8975L40.8909 31.5031C40.9429 31.6458 40.9662 31.7973 40.9596 31.949C40.953 32.1007 40.9165 32.2496 40.8524 32.3873C40.7882 32.5249 40.6975 32.6485 40.5856 32.7511C40.4736 32.8537 40.3426 32.9332 40.1999 32.9851L21.1858 39.9057" stroke="#861313" stroke-width="2" stroke-linecap="round" stroke-linejoin="round"/>
<path d="M40.7969 32.4902V39.0616C40.7969 39.3683 40.6751 39.6624 40.4582 39.8792C40.2414 40.0961 39.9473 40.2179 39.6406 40.2179H19.4062" stroke="#861313" stroke-width="2" stroke-linecap="round" stroke-linejoin="round"/>
<path d="M19.4063 36.75C20.3641 36.75 21.1406 35.9735 21.1406 35.0156C21.1406 34.0578 20.3641 33.2812 19.4063 33.2812C18.4484 33.2812 17.6719 34.0578 17.6719 35.0156C17.6719 35.9735 18.4484 36.75 19.4063 36.75Z" fill="#861313"/>
</svg>
