<svg width="46" height="46" viewBox="0 0 46 46" fill="none" xmlns="http://www.w3.org/2000/svg">
<rect width="32" height="32" rx="10" fill="#F3E7E7"/>
<path opacity="0.2" d="M39.0625 15.9375H15.9375C15.3242 15.9375 14.736 16.1811 14.3023 16.6148C13.8686 17.0485 13.625 17.6367 13.625 18.25V34.4375C13.625 35.0508 13.8686 35.639 14.3023 36.0727C14.736 36.5064 15.3242 36.75 15.9375 36.75H39.0625C39.6758 36.75 40.264 36.5064 40.6977 36.0727C41.1314 35.639 41.375 35.0508 41.375 34.4375V18.25C41.375 17.6367 41.1314 17.0485 40.6977 16.6148C40.264 16.1811 39.6758 15.9375 39.0625 15.9375ZM25.1875 30.9688V21.7188L32.125 26.3438L25.1875 30.9688Z" fill="#861313"/>
<path d="M15.9375 36.75H39.0625C40.3397 36.75 41.375 35.7147 41.375 34.4375V18.25C41.375 16.9728 40.3397 15.9375 39.0625 15.9375L15.9375 15.9375C14.6603 15.9375 13.625 16.9728 13.625 18.25L13.625 34.4375C13.625 35.7147 14.6603 36.75 15.9375 36.75Z" stroke="#861313" stroke-width="2.035" stroke-linecap="round" stroke-linejoin="round"/>
<path d="M32.125 41.375H22.875" stroke="#861313" stroke-width="2.035" stroke-linecap="round" stroke-linejoin="round"/>
<path d="M32.125 26.3438L25.1875 21.7188V30.9688L32.125 26.3438Z" stroke="#861313" stroke-width="2.035" stroke-linecap="round" stroke-linejoin="round"/>
</svg>
