<svg width="46" height="46" viewBox="0 0 46 46" fill="none" xmlns="http://www.w3.org/2000/svg">
<rect width="32" height="32" rx="10" fill="#F3E7E7"/>
<path opacity="0.2" d="M19.4063 23.4531H13.625C12.9864 23.4531 12.4688 23.9708 12.4688 24.6094V30.3906C12.4688 31.0292 12.9864 31.5469 13.625 31.5469H19.4063C20.0448 31.5469 20.5625 31.0292 20.5625 30.3906V24.6094C20.5625 23.9708 20.0448 23.4531 19.4063 23.4531Z" fill="#861313"/>
<path opacity="0.2" d="M33.2812 14.8438H40.2188C40.8228 14.8438 41.3125 15.3334 41.3125 15.9375V22.875C41.3125 23.4791 40.8228 23.9688 40.2188 23.9688H33.2812C32.6772 23.9687 32.1875 23.4791 32.1875 22.875V15.9375C32.1875 15.3334 32.6772 14.8438 33.2812 14.8438Z" fill="#861313" stroke="#861313" stroke-width="0.125"/>
<path opacity="0.2" d="M33.2812 31.0312H40.2188C40.8228 31.0312 41.3125 31.5209 41.3125 32.125V39.0625C41.3125 39.6666 40.8228 40.1562 40.2188 40.1562H33.2812C32.6772 40.1562 32.1875 39.6666 32.1875 39.0625V32.125C32.1875 31.5209 32.6772 31.0313 33.2812 31.0312Z" fill="#861313" stroke="#861313" stroke-width="0.125"/>
<path d="M19.4063 23.4531H13.625C12.9864 23.4531 12.4688 23.9708 12.4688 24.6094V30.3906C12.4688 31.0292 12.9864 31.5469 13.625 31.5469H19.4063C20.0448 31.5469 20.5625 31.0292 20.5625 30.3906V24.6094C20.5625 23.9708 20.0448 23.4531 19.4063 23.4531Z" stroke="#861313" stroke-width="2" stroke-linecap="round" stroke-linejoin="round"/>
<path d="M40.2188 14.7812H33.2813C32.6427 14.7812 32.125 15.2989 32.125 15.9375V22.875C32.125 23.5136 32.6427 24.0313 33.2813 24.0313H40.2188C40.8573 24.0313 41.375 23.5136 41.375 22.875V15.9375C41.375 15.2989 40.8573 14.7812 40.2188 14.7812Z" stroke="#861313" stroke-width="2" stroke-linecap="round" stroke-linejoin="round"/>
<path d="M40.2188 30.9688H33.2813C32.6427 30.9688 32.125 31.4864 32.125 32.125V39.0625C32.125 39.7011 32.6427 40.2188 33.2813 40.2188H40.2188C40.8573 40.2188 41.375 39.7011 41.375 39.0625V32.125C41.375 31.4864 40.8573 30.9688 40.2188 30.9688Z" stroke="#861313" stroke-width="2" stroke-linecap="round" stroke-linejoin="round"/>
<path d="M20.5625 27.5H26.3438" stroke="#861313" stroke-width="2" stroke-linecap="round" stroke-linejoin="round"/>
<path d="M32.125 35.5938H29.8125C28.8925 35.5938 28.0102 35.2283 27.3597 34.5778C26.7092 33.9273 26.3438 33.045 26.3438 32.125V22.875C26.3438 21.955 26.7092 21.0727 27.3597 20.4222C28.0102 19.7717 28.8925 19.4063 29.8125 19.4062H32.125" stroke="#861313" stroke-width="2" stroke-linecap="round" stroke-linejoin="round"/>
</svg>
