<svg width="37" height="37" viewBox="0 0 37 37" fill="none" xmlns="http://www.w3.org/2000/svg">
<path opacity="0.2" d="M30.0625 6.9375H6.9375C6.32419 6.93751 5.736 7.18115 5.30232 7.61482C4.86865 8.0485 4.62501 8.63669 4.625 9.25V25.4375C4.62501 26.0508 4.86865 26.639 5.30232 27.0727C5.736 27.5064 6.32419 27.75 6.9375 27.75H30.0625C30.6758 27.75 31.264 27.5064 31.6977 27.0727C32.1314 26.639 32.375 26.0508 32.375 25.4375V9.25C32.375 8.63669 32.1314 8.0485 31.6977 7.61482C31.264 7.18115 30.6758 6.93751 30.0625 6.9375ZM16.1875 21.9688V12.7188L23.125 17.3438L16.1875 21.9688Z" fill="#861313"/>
<path d="M6.93749 27.75L30.0625 27.75C31.3397 27.75 32.375 26.7147 32.375 25.4375V9.25C32.375 7.97284 31.3397 6.9375 30.0625 6.9375L6.93749 6.9375C5.66034 6.9375 4.62499 7.97284 4.62499 9.25L4.62499 25.4375C4.62499 26.7147 5.66034 27.75 6.93749 27.75Z" stroke="#861313" stroke-width="2.035" stroke-linecap="round" stroke-linejoin="round"/>
<path d="M23.125 32.375H13.875" stroke="#861313" stroke-width="2.035" stroke-linecap="round" stroke-linejoin="round"/>
<path d="M23.125 17.3438L16.1875 12.7188V21.9688L23.125 17.3438Z" stroke="#861313" stroke-width="2.035" stroke-linecap="round" stroke-linejoin="round"/>
</svg>
